<svg xmlns="http://www.w3.org/2000/svg" width="225" height="75" viewBox="0 0 225 75"><polygon points="66.89 43.48 89.8 43.48 89.8 36.83 74.63 36.83 74.63 32.34 88.19 32.34 88.19 26.17 74.63 26.17 74.63 21.85 89.6 21.85 89.6 15.23 66.89 15.23 66.89 43.48" fill="#231f20"/><path d="M103.77,39.5A4.83,4.83,0,1,0,99,44.35a4.8,4.8,0,0,0,4.79-4.85" fill="#231f20"/><path d="M13.23,44c6.87,0,11.43-3.43,11.43-9.2v-.08c0-5.29-4-7.39-10.5-8.8-3.95-.89-4.92-1.46-4.92-2.75v-.08c0-1,.93-1.82,2.82-1.82A13.85,13.85,0,0,1,20,24l3.91-5.53a17.79,17.79,0,0,0-11.62-3.75c-6.79,0-10.94,3.79-10.94,9v.08C1.33,29.64,6,31.34,12,32.71c3.87.93,4.8,1.53,4.8,2.75v.08c0,1.21-1.13,1.93-3.27,1.93a14.62,14.62,0,0,1-9.16-3.39L0,39.29A19.83,19.83,0,0,0,13.23,44" fill="#231f20"/><path d="M35.33,29.28V21.81h3.72c2.79,0,4.52,1.25,4.52,3.68v.08c0,2.22-1.73,3.71-4.48,3.71Zm-7.82,14.2h7.82V35.41h3.92c7,0,12.11-3.51,12.11-10.21v-.08c0-6.21-4.6-9.88-11.7-9.88H27.51Z" fill="#231f20"/><rect x="54.14" y="15.24" width="7.82" height="28.25" fill="#231f20"/><path d="M121.14,21c0-3.35-2.6-5.78-6.19-5.78h-4.57V26.88H115C118.54,26.88,121.14,24.44,121.14,21ZM115,24.34h-1.78V17.8H115a3.11,3.11,0,0,1,3.29,3.3A3.09,3.09,0,0,1,115,24.34Z" fill="#0099d9"/><polygon points="131.94 24.38 125.77 24.38 125.77 22.28 131.13 22.28 131.13 19.78 125.77 19.78 125.77 17.76 131.86 17.76 131.86 15.26 123 15.26 123 26.89 131.94 26.89 131.94 24.38" fill="#0099d9"/><polygon points="136.59 22.5 142.01 22.5 142.01 19.94 136.59 19.94 136.59 17.81 142.74 17.81 142.74 15.26 133.8 15.26 133.8 26.89 136.59 26.89 136.59 22.5" fill="#0099d9"/><polygon points="153.32 24.38 147.15 24.38 147.15 22.28 152.51 22.28 152.51 19.78 147.15 19.78 147.15 17.76 153.24 17.76 153.24 15.26 144.38 15.26 144.38 26.89 153.32 26.89 153.32 24.38" fill="#0099d9"/><polygon points="157.94 19.96 163.18 26.83 163.23 26.89 165.57 26.89 165.57 15.26 162.81 15.26 162.81 21.96 157.75 15.31 157.7 15.26 155.18 15.26 155.18 26.89 157.94 26.89 157.94 19.96" fill="#0099d9"/><path d="M172.17,24.56a5.05,5.05,0,0,1-3.3-1.35l-.11-.09-1.66,2,.1.1a7.4,7.4,0,0,0,4.92,1.85c2.66,0,4.31-1.41,4.31-3.7,0-2.13-1.48-3-3.71-3.54-1.95-.49-2.34-.72-2.34-1.38,0-.51.52-.84,1.32-.84a5.09,5.09,0,0,1,2.87,1.09l.12.08,1.45-2.11-.1-.08a6.7,6.7,0,0,0-4.31-1.47c-2.43,0-4.12,1.46-4.12,3.59,0,2.43,1.68,3,3.87,3.61,1.88.48,2.18.77,2.18,1.33S173.1,24.56,172.17,24.56Z" fill="#0099d9"/><polygon points="187.19 24.38 181.02 24.38 181.02 22.28 186.38 22.28 186.38 19.78 181.02 19.78 181.02 17.76 187.11 17.76 187.11 15.26 178.25 15.26 178.25 26.89 187.19 26.89 187.19 24.38" fill="#0099d9"/><polygon points="194.32 16.86 191.73 16.86 191.73 19.78 188.79 19.78 188.79 22.3 191.73 22.3 191.73 25.22 194.32 25.22 194.32 22.3 197.26 22.3 197.26 19.78 194.32 19.78 194.32 16.86" fill="#0099d9"/><path d="M118.92,39.69l-.1.09a4,4,0,0,1-2.89,1.3,3.23,3.23,0,0,1-3.15-3.46,3.19,3.19,0,0,1,3.15-3.38,4,4,0,0,1,2.81,1.24l.11.1,1.77-2-.1-.09a6.05,6.05,0,0,0-4.58-1.79,5.91,5.91,0,0,0-6.06,6,5.84,5.84,0,0,0,6,6,5.93,5.93,0,0,0,4.76-2.07l.09-.1Z" fill="#0099d9"/><path d="M128,43.66a6,6,0,0,0,6.2-6,6,6,0,0,0-6.17-6,6.05,6.05,0,0,0-6.2,6A5.94,5.94,0,0,0,128,43.66Zm0-2.58a3.3,3.3,0,0,1-3.3-3.46A3.25,3.25,0,0,1,128,34.24a3.29,3.29,0,0,1,3.29,3.45A3.25,3.25,0,0,1,128,41.08Z" fill="#0099d9"/><polygon points="144.89 43.47 147.66 43.47 147.66 31.84 144.74 31.84 141.84 36.51 138.97 31.91 138.93 31.84 136.01 31.84 136.01 43.47 138.75 43.47 138.75 36.45 141.65 40.85 141.69 40.91 141.91 40.91 144.89 36.4 144.89 43.47" fill="#0099d9"/><polygon points="161.67 43.47 161.67 31.84 158.76 31.84 155.85 36.51 152.99 31.91 152.94 31.84 150.03 31.84 150.03 43.47 152.76 43.47 152.76 36.45 155.66 40.85 155.71 40.91 155.93 40.91 158.9 36.4 158.9 43.47 161.67 43.47" fill="#0099d9"/><polygon points="172.9 34.35 172.9 31.84 164.04 31.84 164.04 43.47 172.98 43.47 172.98 40.96 166.81 40.96 166.81 38.87 172.17 38.87 172.17 36.36 166.81 36.36 166.81 34.35 172.9 34.35" fill="#0099d9"/><path d="M184.61,35.73a3.71,3.71,0,0,0-1-2.7,4.7,4.7,0,0,0-3.41-1.19h-5.34V43.47h2.79V39.84h1.74l2.44,3.63h3.27l-2.83-4.13A3.67,3.67,0,0,0,184.61,35.73Zm-7-1.35H180c.68,0,1.82.19,1.82,1.51,0,.9-.68,1.46-1.77,1.46h-2.39Z" fill="#0099d9"/><path d="M195,39.78a4,4,0,0,1-2.89,1.3,3.24,3.24,0,0,1-3.16-3.46,3.2,3.2,0,0,1,3.16-3.38,4,4,0,0,1,2.8,1.24l.11.1,1.78-2-.1-.09a6.05,6.05,0,0,0-4.58-1.79,5.91,5.91,0,0,0-6.07,6,5.84,5.84,0,0,0,6,6,5.94,5.94,0,0,0,4.77-2.07l.09-.1-1.78-1.8Z" fill="#0099d9"/><rect x="198.53" y="31.84" width="2.79" height="11.63" fill="#0099d9"/><path d="M210.24,31.76h-2.5l-5,11.71h2.86l1-2.54h4.61l1,2.54h2.93l-5-11.62Zm0,6.68h-2.59l1.3-3.16Z" fill="#0099d9"/><polygon points="219.34 40.91 219.34 31.84 216.55 31.84 216.55 43.47 225 43.47 225 40.91 219.34 40.91" fill="#0099d9"/><path d="M115.17,53c-2-.5-2.34-.72-2.34-1.38s.51-.84,1.31-.84A5.15,5.15,0,0,1,117,51.85l.11.08,1.46-2.11-.11-.08a6.66,6.66,0,0,0-4.3-1.48c-2.43,0-4.12,1.47-4.12,3.6,0,2.42,1.68,3,3.87,3.61,1.88.48,2.18.77,2.18,1.33s-.56.93-1.5.93a5.09,5.09,0,0,1-3.3-1.35l-.11-.09-1.65,2,.1.1a7.38,7.38,0,0,0,4.92,1.85c2.66,0,4.31-1.41,4.31-3.7C118.88,54.39,117.4,53.56,115.17,53Z" fill="#0099d9"/><polygon points="123.47 55.45 128.82 55.45 128.82 52.95 123.47 52.95 123.47 50.93 129.55 50.93 129.55 48.43 120.7 48.43 120.7 60.05 129.63 60.05 129.63 57.55 123.47 57.55 123.47 55.45" fill="#0099d9"/><polygon points="139.13 55.13 134.06 48.48 134.02 48.43 131.5 48.43 131.5 60.05 134.26 60.05 134.26 53.13 139.5 60 139.54 60.05 141.88 60.05 141.88 48.43 139.13 48.43 139.13 55.13" fill="#0099d9"/><path d="M149,53c-1.95-.5-2.34-.72-2.34-1.38s.51-.84,1.31-.84a5.15,5.15,0,0,1,2.88,1.09l.11.08,1.46-2.11-.11-.08a6.66,6.66,0,0,0-4.3-1.48c-2.43,0-4.12,1.47-4.12,3.6,0,2.42,1.68,3,3.87,3.61,1.88.48,2.18.77,2.18,1.33s-.56.93-1.5.93a5.09,5.09,0,0,1-3.3-1.35l-.11-.09-1.65,2,.1.1a7.38,7.38,0,0,0,4.92,1.85c2.66,0,4.31-1.41,4.31-3.7C152.75,54.39,151.27,53.56,149,53Z" fill="#0099d9"/><rect x="154.68" y="48.43" width="2.79" height="11.63" fill="#0099d9"/><polygon points="167.58 55.13 162.51 48.48 162.47 48.43 159.95 48.43 159.95 60.05 162.71 60.05 162.71 53.13 167.95 60 167.99 60.05 170.34 60.05 170.34 48.43 167.58 48.43 167.58 55.13" fill="#0099d9"/><path d="M178.09,55.68h2.52v1.4a3.91,3.91,0,0,1-2.21.61,3.44,3.44,0,0,1-.18-6.87,4,4,0,0,1,2.88,1.12l.11.09L183,49.91l-.1-.09a6.44,6.44,0,0,0-4.56-1.59,6,6,0,0,0-6.1,6,5.85,5.85,0,0,0,6.12,6,7.5,7.5,0,0,0,4.94-1.83l.05-.05V53.24h-5.22Z" fill="#0099d9"/></svg>