<?xml version="1.0" encoding="utf-8"?>
<!-- Generator: Adobe Illustrator 25.1.0, SVG Export Plug-In . SVG Version: 6.00 Build 0)  -->
<svg version="1.1" id="Layer_1" xmlns="http://www.w3.org/2000/svg" xmlns:xlink="http://www.w3.org/1999/xlink" x="0px" y="0px"
	 viewBox="0 0 1252 914.9" style="enable-background:new 0 0 1252 914.9;" xml:space="preserve">
<style type="text/css">
	.st0{clip-path:url(#SVGID_2_);}
	.st1{fill:none;stroke:#862F70;stroke-width:5;}
	.st2{clip-path:url(#SVGID_4_);}
	.st3{fill:none;stroke:#862F70;stroke-width:5;stroke-dasharray:5,3;}
	.st4{clip-path:url(#SVGID_6_);}
	.st5{fill:none;stroke:#E9AD4D;stroke-width:5;}
	.st6{clip-path:url(#SVGID_8_);}
	.st7{fill:none;stroke:#E9AD4D;stroke-width:5;stroke-dasharray:5,3;}
	.st8{clip-path:url(#SVGID_10_);}
	.st9{fill:none;stroke:#D02027;stroke-width:5;}
	.st10{clip-path:url(#SVGID_12_);}
	.st11{fill:none;stroke:#D02027;stroke-width:5;stroke-dasharray:5,3;}
	.st12{clip-path:url(#SVGID_14_);}
	.st13{fill:none;stroke:#00538E;stroke-width:5;}
	.st14{clip-path:url(#SVGID_16_);}
	.st15{fill:none;stroke:#00538E;stroke-width:5;stroke-dasharray:5,3;}
	.st16{font-family:'AcuminPro-Light';}
	.st17{font-size:35px;}
	.st18{font-family:'AcuminProCond-Light';}
	.st19{font-size:24px;}
	.st20{fill:none;stroke:#000000;}
	.st21{fill:none;stroke:#000000;stroke-linecap:square;}
	.st22{font-size:30px;}
	.st23{fill:none;stroke:#939598;stroke-width:5.7111;stroke-miterlimit:10;stroke-dasharray:7.3097,4.3858;}
	.st24{fill:none;stroke:#939598;stroke-width:5.7111;stroke-miterlimit:10;}
	.st25{font-family:'AcuminProCond-Medium';}
	.st26{fill:none;stroke:#000000;stroke-width:0.5;}
	.st27{fill:none;stroke:#000000;stroke-width:0.4392;}
	.st28{fill:none;stroke:#000000;stroke-width:0.4184;}
	.st29{fill:none;stroke:#000000;stroke-width:0.4089;}
	.st30{fill:none;}
	.st31{font-size:22.5px;}
	.st32{letter-spacing:-2;}
</style>
<g id="Commands">
	<g id="Qc_1_W_CTE">
		<g>
			<g>
				<g>
					<g>
						<g>
							<defs>
								<rect id="SVGID_1_" x="92.4" y="25" width="1127.9" height="795"/>
							</defs>
							<clipPath id="SVGID_2_">
								<use xlink:href="#SVGID_1_"  style="overflow:visible;"/>
							</clipPath>
							<g class="st0">
								<path class="st1" d="M-34.5,1379.8l126.9-15.3l12.5-2c1-0.2,2-0.6,2.8-1.2l674-504.4c0.9-0.7,1.7-1.7,2.1-2.8l13.4-33.4
									l14.1-38.8l14.1-43.4l14.1-49.1l14.1-56.7l14.1-67.4l14.1-83.9l14-114c0.1-0.4,0.1-0.9,0.1-1.4L910,137.6l1.5-110.8"/>
							</g>
						</g>
					</g>
				</g>
			</g>
		</g>
	</g>
	<g>
		<g>
			<g>
				<g>
					<g>
						<defs>
							<rect id="SVGID_3_" x="92.4" y="25" width="1127.9" height="795"/>
						</defs>
						<clipPath id="SVGID_4_">
							<use xlink:href="#SVGID_3_"  style="overflow:visible;"/>
						</clipPath>
						<g id="QC_1_W_DTP" class="st2">
							<path class="st3" d="M799.5,822c4-8,7.9-16.1,11.9-24.5c4.7-9.9,9.4-20.1,14.1-30.6c4.7-10.5,9.4-21.3,14.1-32.5
								c4.7-11.2,9.4-22.6,14.1-34.5c4.7-11.9,9.4-24.1,14.1-36.8c4.7-12.7,9.4-25.8,14.1-39.3c4.7-13.6,9.4-27.6,14.1-42.1
								c4.7-14.5,9.4-29.6,14.1-45.3c4.7-15.7,9.4-31.9,14.1-48.8c4.7-16.9,9.4-34.5,14.1-52.9c4.7-18.4,9.4-37.6,14.1-57.7
								c4.7-20.1,9.4-41.1,14.1-63.2c4.7-22.1,9.4-45.3,14.1-69.9c4.7-24.5,9.4-50.4,14.1-78c4.7-27.5,9.4-56.7,14.1-88.1
								c2.6-17.5,5.2-35.8,7.9-54.8"/>
						</g>
					</g>
				</g>
			</g>
		</g>
	</g>
	<g>
		<g>
			<g>
				<g>
					<g>
						<defs>
							<rect id="SVGID_5_" x="92.4" y="25" width="1127.9" height="795"/>
						</defs>
						<clipPath id="SVGID_6_">
							<use xlink:href="#SVGID_5_"  style="overflow:visible;"/>
						</clipPath>
						<g id="QC_5_W_CTE" class="st4">
							<path class="st5" d="M653.9,822c0.8-2,1.6-4,2.4-6c4.7-11.7,9.4-23.9,14.1-36.8c4.7-12.9,9.4-26.5,14.1-40.8
								c4.7-14.4,9.4-29.6,14.1-45.8c4.7-16.2,9.4-33.5,14.1-52.2c4.7-18.7,9.4-38.9,14.1-60.8c4.7-21.9,9.4-45.7,14.1-73.4
								c4.7-27.7,9.4-59.4,14.1-94.1c4.7-34.7,9.4-72.5,14.1-140c4.5-64.5,9-156.2,13.5-249.1"/>
						</g>
					</g>
				</g>
			</g>
		</g>
	</g>
	<g>
		<g>
			<g>
				<g>
					<g>
						<defs>
							<rect id="SVGID_7_" x="92.4" y="25" width="1127.9" height="795"/>
						</defs>
						<clipPath id="SVGID_8_">
							<use xlink:href="#SVGID_7_"  style="overflow:visible;"/>
						</clipPath>
						<g id="QC_5_W_DTP" class="st6">
							<path class="st7" d="M658.2,822c4.1-7.7,8.2-15.7,12.3-23.8c4.7-9.3,9.4-18.9,14.1-28.7c4.7-9.8,9.4-19.9,14.1-30.4
								c4.7-10.4,9.4-21.1,14.1-32.1c4.7-11,9.4-22.4,14.1-34.1c4.7-11.7,9.4-23.8,14.1-36.2c4.7-12.4,9.4-25.3,14.1-38.6
								c4.7-13.3,9.4-27,14.1-41.2s9.4-28.9,14.1-44.1c4.7-15.2,9.4-31,14.1-47.4c4.7-16.4,9.4-33.4,14.1-51.1
								c4.7-17.7,9.4-36.2,14.1-55.5s9.4-39.4,14.1-60.4c4.7-21.1,9.4-43.1,14.1-66.3c4.7-23.2,9.4-47.6,14.1-73.4
								c4.7-25.8,9.4-53.1,14.1-82.1c2.8-17.2,5.6-34.9,8.3-53.5"/>
						</g>
					</g>
				</g>
			</g>
		</g>
	</g>
	<g>
		<g>
			<g>
				<g>
					<g>
						<defs>
							<rect id="SVGID_9_" x="92.4" y="25" width="1127.9" height="795"/>
						</defs>
						<clipPath id="SVGID_10_">
							<use xlink:href="#SVGID_9_"  style="overflow:visible;"/>
						</clipPath>
						<g id="Qc_10_W_CTE" class="st8">
							<path class="st9" d="M471.6,822c0.5-1.2,1-2.3,1.5-3.5c4.7-10.8,9.4-22.2,14.1-34c4.7-11.9,9.4-24.3,14.1-37.4
								c4.7-13.1,9.4-26.8,14.1-41.4c4.7-14.6,9.4-30,14.1-46.5c4.7-16.5,9.4-34,14.1-53c4.7-18.9,9.4-39.3,14.1-61.8
								c4.7-22.5,9.4-47.3,14.1-74.9c4.7-27.6,9.4-57.9,14.1-97.1c4.7-39.2,9.4-87.2,14.1-150.9c4.2-57.3,8.4-127.3,12.7-198.5"/>
						</g>
					</g>
				</g>
			</g>
		</g>
	</g>
	<g>
		<g>
			<g>
				<g>
					<g>
						<defs>
							<rect id="SVGID_11_" x="92.4" y="25" width="1127.9" height="795"/>
						</defs>
						<clipPath id="SVGID_12_">
							<use xlink:href="#SVGID_11_"  style="overflow:visible;"/>
						</clipPath>
						<g id="QC_10_W_DTP" class="st10">
							<path class="st11" d="M478.3,822c3-5.2,5.9-10.5,8.9-15.9c4.7-8.6,9.4-17.3,14.1-26.3s9.4-18.2,14.1-27.7
								c4.7-9.5,9.4-19.2,14.1-29.2c4.7-10,9.4-20.2,14.1-30.8c4.7-10.5,9.4-21.4,14.1-32.5c4.7-11.1,9.4-22.6,14.1-34.4
								c4.7-11.8,9.4-23.9,14.1-36.5c4.7-12.5,9.4-25.4,14.1-38.7c4.7-13.3,9.4-27,14.1-41.2c4.7-14.2,9.4-28.9,14.1-44.1
								c4.7-15.2,9.4-30.9,14.1-47.2c4.7-16.3,9.4-33.2,14.1-50.8s9.4-35.8,14.1-54.9c4.7-19,9.4-38.8,14.1-59.6
								c4.7-20.7,9.4-42.4,14.1-65.1c4.7-22.7,9.4-46.5,14.1-71.7c4.7-25.1,9.4-51.6,14.1-79.7c0.7-4.2,1.4-8.5,2.1-12.8"/>
						</g>
					</g>
				</g>
			</g>
		</g>
	</g>
	<g>
		<g>
			<g>
				<g>
					<g>
						<defs>
							<rect id="SVGID_13_" x="92.4" y="25" width="1127.9" height="795"/>
						</defs>
						<clipPath id="SVGID_14_">
							<use xlink:href="#SVGID_13_"  style="overflow:visible;"/>
						</clipPath>
						<g id="QC_20_W_CTE" class="st12">
							<path class="st13" d="M93.4,822c4.4-9,8.8-18.4,13.1-28.1c4.7-10.4,9.4-21.3,14.1-32.6s9.4-23.2,14.1-35.6
								c4.7-12.4,9.4-25.4,14.1-39.2c4.7-13.7,9.4-28.2,14.1-43.6c4.7-15.4,9.4-31.6,14.1-49.2c4.7-17.6,9.4-36.4,14.1-56.6
								c4.7-20.2,9.4-41.7,14.1-67.3c4.7-25.6,9.4-55.4,14.1-84.6c4.7-29.2,9.4-57.9,14.1-120.6c4.5-59.6,8.9-149.8,13.4-241.6"/>
						</g>
					</g>
				</g>
			</g>
		</g>
	</g>
	<g>
		<g>
			<g>
				<g>
					<g>
						<defs>
							<rect id="SVGID_15_" x="92.4" y="25" width="1127.9" height="795"/>
						</defs>
						<clipPath id="SVGID_16_">
							<use xlink:href="#SVGID_15_"  style="overflow:visible;"/>
						</clipPath>
						<g id="Qc_20_W_DTP" class="st14">
							<path class="st15" d="M108.3,822c4.1-6.4,8.2-13,12.3-19.7c4.7-7.7,9.4-15.5,14.1-23.5c4.7-8,9.4-16.2,14.1-24.6
								c4.7-8.4,9.4-16.9,14.1-25.7c4.7-8.8,9.4-17.7,14.1-26.9c4.7-9.2,9.4-18.5,14.1-28.1c4.7-9.6,9.4-19.4,14.1-29.5
								c4.7-10.1,9.4-20.4,14.1-31c4.7-10.6,9.4-21.4,14.1-32.6c4.7-11.1,9.4-22.6,14.1-34.3c4.7-11.7,9.4-23.8,14.1-36.2
								c4.7-12.4,9.4-25.2,14.1-38.3c4.7-13.1,9.4-26.6,14.1-40.6c4.7-13.9,9.4-28.3,14.1-43.1c4.7-14.8,9.4-30.1,14.1-45.9
								s9.4-32.1,14.1-49.1c4.7-16.9,9.4-34.5,14.1-52.7s9.4-37.1,14.1-56.7c4.7-19.7,9.4-40.1,14.1-61.5s9.4-43.7,14.1-67.1
								c2.1-10.5,4.2-21.1,6.3-32.1"/>
						</g>
					</g>
				</g>
			</g>
		</g>
	</g>
</g>
<g transform="translate(14.0188,407.5) rotate(-90) translate(-14.0188,-407.5)">
	<text transform="matrix(1 0 0 1 -140.657 434.7438)" class="st16 st17">Input Power, W</text>
</g>
<g id="Y_Labels">
	<g>
		<text transform="matrix(1 0 0 1 60.6722 826.304)" class="st18 st19">25</text>
	</g>
	<g>
		<text transform="matrix(1 0 0 1 60.6722 712.732)" class="st18 st19">30</text>
	</g>
	<g>
		<text transform="matrix(1 0 0 1 60.6722 599.161)" class="st18 st19">35</text>
	</g>
	<g>
		<text transform="matrix(1 0 0 1 60.6722 485.589)" class="st18 st19">40</text>
	</g>
	<g>
		<text transform="matrix(1 0 0 1 60.6722 372.018)" class="st18 st19">45</text>
	</g>
	<g>
		<text transform="matrix(1 0 0 1 60.6722 258.447)" class="st18 st19">50</text>
	</g>
	<g>
		<text transform="matrix(1 0 0 1 60.6722 144.875)" class="st18 st19">55</text>
	</g>
	<g>
		<text transform="matrix(1 0 0 1 60.6722 31.3037)" class="st18 st19">60</text>
	</g>
</g>
<path class="st20" d="M84.4,820h8 M84.4,706.4h8 M84.4,592.9h8 M84.4,479.3h8 M84.4,365.7h8 M84.4,252.1h8 M84.4,138.6h8 M84.4,25h8
	"/>
<text transform="matrix(1 0 0 1 444.9001 892.3363)" class="st16 st17">Temperature Difference, K</text>
<g>
	<g>
		<text transform="matrix(1 0 0 1 83.7462 850.1901)" class="st18 st19">20</text>
	</g>
	<g>
		<text transform="matrix(1 0 0 1 224.734 850.1901)" class="st18 st19">30</text>
	</g>
	<g>
		<text transform="matrix(1 0 0 1 365.721 850.1901)" class="st18 st19">40</text>
	</g>
	<g>
		<text transform="matrix(1 0 0 1 506.709 850.1901)" class="st18 st19">50</text>
	</g>
	<g>
		<text transform="matrix(1 0 0 1 647.696 850.1901)" class="st18 st19">60</text>
	</g>
	<g>
		<text transform="matrix(1 0 0 1 788.684 850.1901)" class="st18 st19">70</text>
	</g>
	<g>
		<text transform="matrix(1 0 0 1 929.671 850.1901)" class="st18 st19">80</text>
	</g>
	<g>
		<text transform="matrix(1 0 0 1 1070.66 850.1901)" class="st18 st19">90</text>
	</g>
	<g>
		<text transform="matrix(1 0 0 1 1208.3101 850.1901)" class="st18 st19">100</text>
	</g>
</g>
<path class="st20" d="M92.4,828v-8 M233.4,828v-8 M374.4,828v-8 M515.4,828v-8 M656.4,828v-8 M797.4,828v-8 M938.3,828v-8
	 M1079.3,828v-8 M1220.3,828v-8"/>
<path class="st21" d="M92.4,25v795h1127.9"/>
<text transform="matrix(1 0 0 1 1075.2749 717.3212)" class="st16 st22">DTP</text>
<text transform="matrix(1 0 0 1 1075.2749 685.1138)" class="st16 st22">CTE</text>
<line class="st23" x1="1009.4" y1="707.8" x2="1065.4" y2="707.8"/>
<line class="st24" x1="1009.4" y1="675.5" x2="1065.4" y2="675.5"/>
<text transform="matrix(1 0 0 1 290.3342 129.0107)" class="st25 st17">20</text>
<text transform="matrix(1 0 0 1 277.1342 157.0107)" class="st18 st22">WATT</text>
<text transform="matrix(1 0 0 1 644.0457 129.0107)" class="st25 st17">10</text>
<text transform="matrix(1 0 0 1 628.4457 157.0107)" class="st18 st22">WATT</text>
<text transform="matrix(1 0 0 1 817.4131 129.0107)" class="st25 st17">5</text>
<text transform="matrix(1 0 0 1 796.8131 157.0107)" class="st18 st22">WATT</text>
<text transform="matrix(1 0 0 1 952.671 129.0107)" class="st25 st17">1</text>
<text transform="matrix(1 0 0 1 929.171 157.0107)" class="st18 st22">WATT</text>
<g>
	<g>
		<line class="st26" x1="260.1" y1="174.4" x2="341.9" y2="174.4"/>
		<g>
			<path d="M260.7,174.4c1.5-1.5,2.2-4.4,2.3-6.5c-2,2.7-4.7,5.1-7.9,6.5c3.2,1.3,5.7,3.8,7.9,6.5
				C262.7,178.7,262.2,176.1,260.7,174.4z"/>
		</g>
		<g>
			<path d="M341.4,174.4c-1.5-1.5-2.2-4.4-2.3-6.5c2,2.7,4.7,5.1,7.9,6.5c-3.2,1.3-5.7,3.8-7.9,6.5
				C339.3,178.7,339.8,176.1,341.4,174.4z"/>
		</g>
	</g>
</g>
<g>
	<g>
		<line class="st27" x1="621.3" y1="174.4" x2="683.3" y2="174.4"/>
		<g>
			<path d="M621.8,174.4c1.3-1.3,1.9-3.9,2-5.7c-1.8,2.4-4.1,4.5-6.9,5.7c2.8,1.1,5,3.4,6.9,5.7
				C623.6,178.2,623.1,175.9,621.8,174.4z"/>
		</g>
		<g>
			<path d="M682.8,174.4c-1.3-1.3-1.9-3.9-2-5.7c1.8,2.4,4.1,4.5,6.9,5.7c-2.8,1.1-5,3.4-6.9,5.7C681,178.2,681.5,175.9,682.8,174.4
				z"/>
		</g>
	</g>
</g>
<g>
	<g>
		<line class="st28" x1="793.3" y1="174.4" x2="849.3" y2="174.4"/>
		<g>
			<path d="M793.8,174.4c1.2-1.2,1.8-3.7,1.9-5.4c-1.7,2.3-3.9,4.3-6.6,5.4c2.7,1.1,4.8,3.2,6.6,5.4
				C795.5,178,795.1,175.8,793.8,174.4z"/>
		</g>
		<g>
			<path d="M848.8,174.4c-1.2-1.2-1.8-3.7-1.9-5.4c1.7,2.3,3.9,4.3,6.6,5.4c-2.7,1.1-4.8,3.2-6.6,5.4
				C847,178,847.5,175.8,848.8,174.4z"/>
		</g>
	</g>
</g>
<g>
	<g>
		<line class="st29" x1="924.8" y1="174.4" x2="978.1" y2="174.4"/>
		<g>
			<path d="M925.3,174.4c1.2-1.2,1.8-3.6,1.8-5.3c-1.7,2.2-3.8,4.2-6.5,5.3c2.6,1.1,4.7,3.1,6.5,5.3
				C927,177.9,926.6,175.8,925.3,174.4z"/>
		</g>
		<g>
			<path d="M977.6,174.4c-1.2-1.2-1.8-3.6-1.8-5.3c1.7,2.2,3.8,4.2,6.5,5.3c-2.6,1.1-4.7,3.1-6.5,5.3
				C975.9,177.9,976.3,175.8,977.6,174.4z"/>
		</g>
	</g>
</g>
<rect x="287.1" y="59.5" class="st30" width="41.4" height="45.4"/>
<text transform="matrix(1 0 0 1 292.2979 80.9341)" class="st18 st31">Q</text>
<text transform="matrix(0.583 0 0 0.583 302.9175 90.9238)" class="st18 st22">c</text>
<text transform="matrix(1 0 0 1 309.5986 80.9341)" class="st18 st31 st32"> </text>
<text transform="matrix(1 0 0 1 311.6909 80.9341)" class="st18 st31">= </text>
<rect x="639.1" y="59.5" class="st30" width="41.4" height="45.4"/>
<text transform="matrix(1 0 0 1 644.2766 80.9341)" class="st18 st31">Q</text>
<text transform="matrix(0.583 0 0 0.583 654.8962 90.9238)" class="st18 st22">c</text>
<text transform="matrix(1 0 0 1 661.5773 80.9341)" class="st18 st31 st32"> </text>
<text transform="matrix(1 0 0 1 663.6696 80.9341)" class="st18 st31">= </text>
<rect x="808.2" y="60.5" class="st30" width="41.4" height="45.4"/>
<text transform="matrix(1 0 0 1 813.4216 81.9262)" class="st18 st31">Q</text>
<text transform="matrix(0.583 0 0 0.583 824.0413 91.916)" class="st18 st22">c</text>
<text transform="matrix(1 0 0 1 830.7224 81.9262)" class="st18 st31 st32"> </text>
<text transform="matrix(1 0 0 1 832.8147 81.9262)" class="st18 st31">= </text>
<rect x="938.4" y="62.6" class="st30" width="41.4" height="45.4"/>
<text transform="matrix(1 0 0 1 943.6449 84.0161)" class="st18 st31">Q</text>
<text transform="matrix(0.583 0 0 0.583 954.2645 94.0058)" class="st18 st22">c</text>
<text transform="matrix(1 0 0 1 960.9457 84.0161)" class="st18 st31 st32"> </text>
<text transform="matrix(1 0 0 1 963.038 84.0161)" class="st18 st31">= </text>
</svg>
