<?xml version="1.0" encoding="utf-8"?>
<!-- Generator: Adobe Illustrator 25.0.1, SVG Export Plug-In . SVG Version: 6.00 Build 0)  -->
<svg version="1.1" id="Layer_1" xmlns="http://www.w3.org/2000/svg" xmlns:xlink="http://www.w3.org/1999/xlink" x="0px" y="0px"
	 viewBox="0 0 975.5 835.1" style="enable-background:new 0 0 975.5 835.1;" xml:space="preserve">
<style type="text/css">
	.st0{clip-path:url(#SVGID_2_);}
	.st1{fill:none;stroke:#377EB8;stroke-width:2;}
	.st2{clip-path:url(#SVGID_4_);}
	.st3{fill:none;stroke:#E41C1C;stroke-width:2;}
	.st4{clip-path:url(#SVGID_6_);}
	.st5{clip-path:url(#SVGID_8_);}
	.st6{clip-path:url(#SVGID_10_);}
	.st7{clip-path:url(#SVGID_12_);}
	.st8{font-family:'AcuminPro-Regular';}
	.st9{font-size:16px;}
	.st10{font-size:18px;}
	.st11{font-family:'AcuminProCond-Regular';}
	.st12{font-size:14px;}
	.st13{fill:none;stroke:#000000;}
	.st14{enable-background:new    ;}
	.st15{font-family:'Helvetica';}
	.st16{font-size:20px;}
	.st17{fill:none;stroke:#000000;stroke-linecap:square;}
	.st18{fill:none;}
	.st19{fill:none;stroke:#E41C1C;stroke-width:1.76;stroke-miterlimit:10;}
	.st20{fill:none;stroke:#377EB8;stroke-width:1.75;stroke-miterlimit:10;}
</style>
<g>
	<g id="Commands">
		<g id="CDTP_0_at_ZT_0_5">
			<g>
				<defs>
					<rect id="SVGID_1_" x="76.7" y="55.8" width="1010.9" height="714"/>
				</defs>
				<clipPath id="SVGID_2_">
					<use xlink:href="#SVGID_1_"  style="overflow:visible;"/>
				</clipPath>
				<g class="st0">
					<path class="st1" d="M-53.8-16774.7L76.2-579.3l14.4,160.1L148.5,2.7L162.9,74l14.4,62.5l14.4,55.1l14.4,48.9l14.4,43.6
						l14.4,39.1l14.4,35.2l14.4,31.8l14.4,28.8l14.4,26.2l14.4,23.9l14.4,21.9l14.4,20.1l14.4,18.4l14.4,16.9l14.4,15.6l14.4,14.4
						l14.4,13.3l14.4,12.3l14.4,11.4l14.4,10.6l14.4,9.9l14.4,9.2l14.4,8.5l14.4,7.9l14.4,7.4l14.4,6.9l14.4,6.4l14.4,6l14.4,5.6
						l14.4,5.2l14.4,4.9l14.4,4.6l14.4,4.3l14.4,4l14.4,3.7L683,722l14.4,3.3l14.4,3l14.4,2.8l14.4,2.7l14.4,2.5l14.4,2.3l14.4,2.2
						l14.4,2l14.4,1.9l14.4,1.8l14.4,1.7l14.4,1.5l28.9,2.8l28.9,2.4l28.9,2.1l28.9,1.8l3.6,0.2"/>
				</g>
			</g>
		</g>
		<g id="CCTE_i0_at_ZT_0_5">
			<g>
				<defs>
					<rect id="SVGID_3_" x="76.7" y="55.8" width="1010.9" height="714"/>
				</defs>
				<clipPath id="SVGID_4_">
					<use xlink:href="#SVGID_3_"  style="overflow:visible;"/>
				</clipPath>
				<g class="st2">
					<path class="st3" d="M-53.8-16771L76.2-542.1l14.4,163.9L134-26.9L148.5,59l14.4,75.1l14.4,66.3l14.4,58.9l14.4,52.7l14.4,47.5
						l14.4,42.9l14.4,39l14.4,35.6l14.4,32.7l14.4,30.1l14.4,27.7l14.4,25.7l14.4,23.9l14.4,22.2l14.4,20.7l14.4,19.4l14.4,18.2
						l14.4,17.1l14.4,16.1l14.4,15.2l14.4,14.3l14.4,13.5l621.3,262"/>
				</g>
			</g>
		</g>
		<g id="CDTP_0_at_ZT_1">
			<g>
				<defs>
					<rect id="SVGID_5_" x="76.7" y="55.8" width="1010.9" height="714"/>
				</defs>
				<clipPath id="SVGID_6_">
					<use xlink:href="#SVGID_5_"  style="overflow:visible;"/>
				</clipPath>
				<g class="st4">
					<path class="st1" d="M-53.8-29335.3l130,27543.8l14.4,276.2L292.9,12l14.4,44.8L321.8,98l14.4,38.2l14.4,35.4l14.4,32.8
						l14.4,30.6l14.4,28.5l14.4,26.6L423,315l14.4,23.3l14.4,21.9l14.4,20.6l14.4,19.4l14.4,18.3l14.4,17.2l14.4,16.3l14.4,15.4
						l14.4,14.5l14.4,13.8l14.4,13l14.4,12.4l14.4,11.7l14.4,11.1l14.4,10.6l14.4,10.1l14.4,9.6l14.4,9.1l14.4,8.7l14.4,8.3
						l14.4,7.9l14.4,7.5l14.4,7.1l14.4,6.8l14.4,6.5l14.4,6.2l14.4,5.9l14.4,5.7l14.4,5.4l14.4,5.2l14.4,4.9l14.4,4.7l14.4,4.5
						l14.4,4.3l14.4,4.1l14.4,3.9l14.4,3.8l14.4,3.6l3.5,0.8"/>
				</g>
			</g>
		</g>
		<g id="CCTE_i0_at_ZT_1">
			<g>
				<defs>
					<rect id="SVGID_7_" x="76.7" y="55.8" width="1010.9" height="714"/>
				</defs>
				<clipPath id="SVGID_8_">
					<use xlink:href="#SVGID_7_"  style="overflow:visible;"/>
				</clipPath>
				<g class="st5">
					<path class="st3" d="M-53.8-29333.1L76.2-1770l14.4,278.4L278.5,16.5l14.4,51l14.4,47.1l14.4,43.6l14.4,40.5l14.4,37.7
						l14.4,35.2l14.4,32.9l14.4,30.9l14.4,29l14.4,27.3l14.4,25.7l14.4,24.3l14.4,23l14.4,21.8l14.4,20.7l14.4,19.6l14.4,18.7
						l14.4,17.8l14.4,17l14.4,16.2l14.4,15.5l14.4,14.8l14.4,14.2l14.4,13.6l14.4,13l14.4,12.5l14.4,12l14.4,11.5l14.4,11.1
						l14.4,10.7l14.4,10.3l14.4,9.9l14.4,9.6l14.4,9.3l14.4,8.9l303.4,136.3"/>
				</g>
			</g>
		</g>
		<g id="CDTP_0_at_ZT_2">
			<g>
				<defs>
					<rect id="SVGID_9_" x="76.7" y="55.8" width="1010.9" height="714"/>
				</defs>
				<clipPath id="SVGID_10_">
					<use xlink:href="#SVGID_9_"  style="overflow:visible;"/>
				</clipPath>
				<g class="st6">
					<path class="st1" d="M972,561.7l3.4,1.7"/>
					<path class="st1" d="M-53.8-46494.6l130,43034.1L90.7-3027L480.8,23.2L495.2,54l14.4,29.1l14.4,27.6l14.4,26.2l14.4,24.9
						l14.4,23.7l14.4,22.6l14.4,21.5l14.4,20.5l14.4,19.6l14.4,18.7l14.4,17.9l14.4,17.1l14.4,16.4l14.4,15.7l14.4,15.1l14.4,14.5
						l14.4,13.9l14.4,13.3l14.4,12.8l14.4,12.3l14.4,11.8l14.4,11.4l14.4,11l14.4,10.6l14.4,10.2l14.4,9.8l14.4,9.4l14.4,9.1
						l14.4,8.8l14.4,8.5l14.4,8.2l14.4,7.9l14.4,7.6"/>
				</g>
			</g>
		</g>
		<g id="CCTE_i0_at_ZT_2">
			<g>
				<defs>
					<rect id="SVGID_11_" x="76.7" y="55.8" width="1010.9" height="714"/>
				</defs>
				<clipPath id="SVGID_12_">
					<use xlink:href="#SVGID_11_"  style="overflow:visible;"/>
				</clipPath>
				<g class="st7">
					<path class="st3" d="M972,671.3l3.7,2.3"/>
					<path class="st3" d="M-53.8-46493.3l130,43046l14.4,434.8L466.3,42.9l14.4,34l14.4,32.3l14.4,30.7l14.4,29.2l14.4,27.8
						l14.4,26.5l14.4,25.3l14.4,24.2l14.4,23.1l14.4,22.1l14.4,21.2l14.4,20.3l14.4,19.5l14.4,18.8l14.4,18l14.4,17.4l14.4,16.7
						l14.4,16.1l14.4,15.5l14.4,15l14.4,14.5l14.4,14l14.4,13.5l14.4,13.1l14.4,12.6l14.4,12.2l14.4,11.9l14.4,11.5l14.4,11.1
						l14.4,10.8l14.4,10.5l14.4,10.2l14.4,9.9l14.4,9.6l14.4,9.4"/>
				</g>
			</g>
		</g>
		<g id="No_name">
			<g>
				<text transform="matrix(0.9232 0.3842 -0.3842 0.9232 339.7838 589.3402)" class="st8 st9">ZT = 0.5</text>
			</g>
		</g>
		<g id="No_name_2">
			<g>
				<text transform="matrix(0.9232 0.3842 -0.3842 0.9232 525.373 516.4749)" class="st8 st9">ZT = 1</text>
			</g>
		</g>
		<g id="No_name_3">
			<g>
				<text transform="matrix(0.9232 0.3842 -0.3842 0.9232 718.7993 431.2264)" class="st8 st9">ZT = 2</text>
			</g>
		</g>
	</g>
	<g id="Foreground">
		<g id="Y_Axis">
			<g transform="translate(14.0188,375) rotate(-90) translate(-14.0188,-375)">
				<text transform="matrix(1 0 0 1 -42.2072 392.0891)" class="st8 st10">COP</text>
			</g>
			<g id="Y_Labels">
				<g>
					<text transform="matrix(1 0 0 1 62.603 774.0847)" class="st11 st12">0</text>
				</g>
				<g>
					<text transform="matrix(1 0 0 1 45.9213 729.4597)" class="st11 st12">0.05</text>
				</g>
				<g>
					<text transform="matrix(1 0 0 1 45.9213 684.8347)" class="st11 st12">0.10</text>
				</g>
				<g>
					<text transform="matrix(1 0 0 1 45.9213 640.2097)" class="st11 st12">0.15</text>
				</g>
				<g>
					<text transform="matrix(1 0 0 1 45.9213 595.5847)" class="st11 st12">0.20</text>
				</g>
				<g>
					<text transform="matrix(1 0 0 1 45.9213 550.9597)" class="st11 st12">0.25</text>
				</g>
				<g>
					<text transform="matrix(1 0 0 1 45.9213 506.3347)" class="st11 st12">0.30</text>
				</g>
				<g>
					<text transform="matrix(1 0 0 1 45.9213 461.7097)" class="st11 st12">0.35</text>
				</g>
				<g>
					<text transform="matrix(1 0 0 1 45.9213 417.0847)" class="st11 st12">0.40</text>
				</g>
				<g>
					<text transform="matrix(1 0 0 1 45.9213 372.4597)" class="st11 st12">0.45</text>
				</g>
				<g>
					<text transform="matrix(1 0 0 1 45.9213 327.8347)" class="st11 st12">0.50</text>
				</g>
				<g>
					<text transform="matrix(1 0 0 1 45.9213 283.2097)" class="st11 st12">0.55</text>
				</g>
				<g>
					<text transform="matrix(1 0 0 1 45.9213 238.5847)" class="st11 st12">0.60</text>
				</g>
				<g>
					<text transform="matrix(1 0 0 1 45.9213 193.9597)" class="st11 st12">0.65</text>
				</g>
				<g>
					<text transform="matrix(1 0 0 1 45.9213 149.3347)" class="st11 st12">0.70</text>
				</g>
				<g>
					<text transform="matrix(1 0 0 1 45.9213 104.7094)" class="st11 st12">0.75</text>
				</g>
				<g>
					<text transform="matrix(1 0 0 1 45.9213 60.0844)" class="st11 st12">0.80</text>
				</g>
			</g>
			<path class="st13" d="M71.7,769.8h5 M71.7,725.2h5 M71.7,680.5h5 M71.7,635.9h5 M71.7,591.3h5 M71.7,546.7h5 M71.7,502h5
				 M71.7,457.4h5 M71.7,412.8h5 M71.7,368.2h5 M71.7,323.5h5 M71.7,278.9h5 M71.7,234.3h5 M71.7,189.7h5 M71.7,145h5 M71.7,100.4h5
				 M71.7,55.8h5"/>
		</g>
		<g id="X_Axis">
			<g>
				<text transform="matrix(1 0 0 1 479.0337 817.8957)" class="st14"><tspan x="0" y="0" class="st15 st10">Δ</tspan><tspan x="13" y="0" class="st8 st10">T/TH</tspan></text>
			</g>
			<g>
				<g>
					<text transform="matrix(1 0 0 1 64.5367 785.9707)" class="st11 st12">0.05</text>
				</g>
				<g>
					<text transform="matrix(1 0 0 1 209.0167 785.9707)" class="st11 st12">0.10</text>
				</g>
				<g>
					<text transform="matrix(1 0 0 1 353.4978 785.9707)" class="st11 st12">0.15</text>
				</g>
				<g>
					<text transform="matrix(1 0 0 1 497.9778 785.9707)" class="st11 st12">0.20</text>
				</g>
				<g>
					<text transform="matrix(1 0 0 1 642.4578 785.9707)" class="st11 st12">0.25</text>
				</g>
				<g>
					<text transform="matrix(1 0 0 1 786.9387 785.9707)" class="st11 st12">0.30</text>
				</g>
				<g>
					<text transform="matrix(1 0 0 1 931.4187 785.9707)" class="st11 st12">0.35</text>
				</g>
			</g>
			<line class="st13" x1="76.2" y1="774.8" x2="76.2" y2="769.8"/>
			<line class="st13" x1="220.7" y1="774.8" x2="220.7" y2="769.8"/>
			<line class="st13" x1="365.2" y1="774.8" x2="365.2" y2="769.8"/>
			<line class="st13" x1="509.7" y1="774.8" x2="509.7" y2="769.8"/>
			<line class="st13" x1="654.1" y1="774.8" x2="654.1" y2="769.8"/>
			<line class="st13" x1="798.6" y1="774.8" x2="798.6" y2="769.8"/>
			<line class="st13" x1="943.1" y1="774.8" x2="943.1" y2="769.8"/>
		</g>
		<g>
			<text transform="matrix(1 0 0 1 291.6023 38.882)" class="st8 st16">Cooling Maximum COP for DTP and CTE Systems</text>
		</g>
		<path class="st17" d="M76.7,55.8c-1.5,77.5,1.5,155.5-0.5,233.5c0,19,0,38,0,57c2,81,1,163,1,244c0,60-2,119,0,179
			c34,1,68-2,102,1c265-2,531-1,795.8-0.5"/>
		<rect x="901.9" y="77.6" class="st18" width="40.5" height="37.8"/>
		<text transform="matrix(1 0 0 1 901.8638 89.3637)"><tspan x="0" y="0" class="st8 st9">DTP</tspan><tspan x="0" y="19.2" class="st8 st9">CTE</tspan></text>
		<line class="st19" x1="865.8" y1="103.7" x2="892" y2="103.7"/>
		<line class="st20" x1="865.8" y1="84.3" x2="892" y2="84.3"/>
	</g>
</g>
</svg>
